<svg version="1.2" xmlns="http://www.w3.org/2000/svg" viewBox="0 0 800 800" width="800" height="800">
	<title>New Project</title>
	<style>
		.s0 { fill: none;stroke: #ffffff;stroke-miterlimit:100;stroke-width: 20 } 
	</style>
	<path id="Layer 1" class="s0" d=""/>
	<path id="Shape 1" fill-rule="evenodd" class="s0" d="m399.6 548.3c-82.2 0-148.6-66.5-148.6-148.7 0-82.2 66.4-148.6 148.6-148.6 82.2 0 148.6 66.4 148.6 148.6 0 82.2-66.4 148.7-148.6 148.7z"/>
	<path id="Shape 1 copy" fill-rule="evenodd" class="s0" d="m0 346c-80.7 0-146-65.3-146-146 0-80.7 65.3-146 146-146 80.7 0 146 65.3 146 146 0 80.7-65.3 146-146 146z"/>
	<path id="Shape 1 copy 2" fill-rule="evenodd" class="s0" d="m800 746c-80.7 0-146-65.3-146-146 0-80.7 65.3-146 146-146 80.7 0 146 65.3 146 146 0 80.7-65.3 146-146 146z"/>
</svg>